<svg width="58" height="54" viewBox="0 0 58 54" fill="none" xmlns="http://www.w3.org/2000/svg">
<mask id="mask0_540_1511" style="mask-type:luminance" maskUnits="userSpaceOnUse" x="0" y="0" width="58" height="54">
<path d="M35.5398 27.4416C35.0098 24.334 34.2628 21.2674 33.3042 18.2643C32.4407 15.3068 31.3577 12.4179 30.0642 9.62157C29.1327 7.62897 28.4442 6.13857 27.7476 4.98837C32.8182 6.12237 36.1959 8.22837 37.7997 11.2983C39.0795 13.7283 41.0397 17.0331 41.1126 17.1708L41.6958 18.1509L42.7893 17.8836C45.0461 17.3163 47.2602 16.5909 49.4151 15.7128C50.0469 16.5228 51.5373 17.9241 54.7125 18.4668C54.8427 20.1049 54.8859 21.7488 54.8421 23.3916C54.8421 23.9343 54.8421 24.4365 54.8421 24.8982C54.3802 24.7656 53.9046 24.6868 53.4246 24.6633C52.485 24.5823 51.6507 25.1331 50.7597 25.4166C49.8687 25.7001 49.002 25.9998 48.1272 26.3319C47.2524 26.664 46.3695 27.0042 45.5109 27.4011L45.5595 27.717C46.4991 27.8223 47.4306 27.8385 48.3621 27.9033C49.2936 27.9681 50.2251 27.9033 51.1485 27.9033C51.4239 27.9033 51.7074 27.9033 51.9585 27.9033C52.6053 28.0065 53.2676 27.9481 53.8863 27.7332C54.105 27.6441 54.3237 27.5469 54.5424 27.4335C54.4194 27.9413 54.2258 28.4293 53.9673 28.8834C53.2869 30.0579 52.1853 31.2324 46.1994 32.7228C42.9804 33.605 39.6899 34.2014 36.366 34.5048C36.3115 32.1119 36.0404 29.7289 35.556 27.3849M15.2169 50.0487C12.7444 49.6587 10.4116 48.6469 8.43721 47.1084C5.92621 45.0591 5.06761 42.8316 4.26571 40.2477C3.42576 37.4068 3.02959 34.4533 3.09121 31.4916C3.03451 28.1544 3.36661 25.9107 4.01461 21.4233C4.73551 16.4499 5.17291 14.0442 6.33121 11.9058C7.40851 9.92937 9.02851 6.94047 12.8112 5.23947C14.7723 4.37552 16.8891 3.92075 19.032 3.90297C20.7226 3.84009 22.3955 4.26466 23.8515 5.12607C24.9531 5.84697 25.755 7.55607 27.3507 10.9986C28.568 13.659 29.5834 16.4073 30.3882 19.2201C31.3067 22.0902 32.0213 25.0216 32.5266 27.9924C33.2151 32.0424 33.531 33.9459 33.1503 36.141C32.6548 38.7544 31.5687 41.2202 29.9751 43.35C28.428 45.5532 27.0834 47.4648 24.3051 48.8256C22.2828 49.7917 20.0662 50.2821 17.8251 50.2593C16.9435 50.2574 16.0633 50.187 15.1926 50.0487M11.5476 2.33157C6.84151 4.43757 4.86511 8.12308 3.64201 10.3344C2.23261 12.9264 1.74661 15.5508 0.960909 20.9616C0.331063 24.4363 0.0112051 27.9602 0.00510904 31.4916C-0.0536293 34.7806 0.39442 38.059 1.33351 41.2116C2.21641 44.0223 3.34231 46.9869 6.52561 49.5789C8.90713 51.465 11.737 52.7013 14.739 53.1672C15.7677 53.331 16.8078 53.4123 17.8494 53.4102C20.5432 53.4333 23.2064 52.8375 25.6335 51.6687C29.1003 49.9596 30.8094 47.5377 32.4618 45.1887C34.1023 42.9474 35.2833 40.4038 35.9367 37.7043H36.0501V37.6476C38.9256 37.8258 46.005 36.0276 46.9284 35.8332C52.728 34.3914 55.1742 33.0549 56.6484 30.5277C57.9039 28.3407 57.9282 26.1537 57.9525 23.3268C57.9525 19.6332 58.0497 13.4529 54.7125 11.5656C52.8009 10.4802 50.865 11.3307 49.3908 12.1974C47.4118 13.1755 45.3347 13.9412 43.1943 14.4816C42.5058 13.3152 41.3718 11.3388 40.5537 9.76737C37.905 4.76158 31.8948 1.77267 22.6851 1.01127V1.18947C21.4653 0.860248 20.2063 0.699457 18.9429 0.711575C16.3926 0.736961 13.875 1.28847 11.5476 2.33157Z" fill="white"/>
</mask>
<g mask="url(#mask0_540_1511)">
<path d="M58.0092 0.711914H-0.0515747V53.4267H58.0092V0.711914Z" fill="#E9D4A9"/>
</g>
</svg>
